<?xml version="1.0" encoding="UTF-8"?>
<!-- Generated by Pixelmator Pro 4.0 -->
<svg width="1080" height="1080" viewBox="0 0 1080 1080" xmlns="http://www.w3.org/2000/svg">
    <path id="Rounded-Rectangle" fill="#000000" fill-rule="evenodd" stroke="none" d="M 0 622.950012 C 0 791.171448 0 875.282166 35.318607 938.348083 C 60.279819 982.919556 97.080467 1019.720215 141.651917 1044.681396 C 204.717819 1080 288.828552 1080 457.049988 1080 L 622.950012 1080 C 791.171448 1080 875.282166 1080 938.348083 1044.681396 C 982.919556 1019.720154 1019.720154 982.919556 1044.681396 938.348083 C 1080 875.282166 1080 791.171448 1080 622.950012 L 1080 457.049988 C 1080 288.828552 1080 204.717834 1044.681396 141.651917 C 1019.720215 97.080444 982.919556 60.279846 938.348083 35.318604 C 875.282166 0 791.171448 0 622.950012 0 L 457.049988 0 C 288.828552 0 204.717819 0 141.651901 35.318604 C 97.080452 60.279785 60.279804 97.080444 35.318592 141.651917 C -1.4e-05 204.717834 -1.4e-05 288.828552 -1.4e-05 457.049988 Z"/>
    <text id="T" xml:space="preserve" x="230.68" y="847" font-family="Bodoni Ornaments" font-size="985" fill="#ffffff">T</text>
</svg>
